<svg xmlns="http://www.w3.org/2000/svg" viewBox="0 0 512 512" shape-rendering="crispEdges">
<rect width="512" height="512" fill="#010805"/>
<rect x="64" y="96" width="32" height="32" fill="#39ff6a"/>
<rect x="96" y="96" width="32" height="32" fill="#39ff6a"/>
<rect x="128" y="96" width="32" height="32" fill="#39ff6a"/>
<rect x="160" y="96" width="32" height="32" fill="#39ff6a"/>
<rect x="192" y="96" width="32" height="32" fill="#39ff6a"/>
<rect x="224" y="96" width="32" height="32" fill="#39ff6a"/>
<rect x="256" y="96" width="32" height="32" fill="#39ff6a"/>
<rect x="288" y="96" width="32" height="32" fill="#39ff6a"/>
<rect x="320" y="96" width="32" height="32" fill="#39ff6a"/>
<rect x="352" y="96" width="32" height="32" fill="#39ff6a"/>
<rect x="384" y="96" width="32" height="32" fill="#39ff6a"/>
<rect x="416" y="96" width="32" height="32" fill="#39ff6a"/>
<rect x="64" y="128" width="32" height="32" fill="#39ff6a"/>
<rect x="416" y="128" width="32" height="32" fill="#39ff6a"/>
<rect x="64" y="160" width="32" height="32" fill="#39ff6a"/>
<rect x="128" y="160" width="32" height="32" fill="#1c5c34"/>
<rect x="160" y="160" width="32" height="32" fill="#1c5c34"/>
<rect x="192" y="160" width="32" height="32" fill="#1c5c34"/>
<rect x="224" y="160" width="32" height="32" fill="#1c5c34"/>
<rect x="256" y="160" width="32" height="32" fill="#1c5c34"/>
<rect x="288" y="160" width="32" height="32" fill="#1c5c34"/>
<rect x="320" y="160" width="32" height="32" fill="#1c5c34"/>
<rect x="352" y="160" width="32" height="32" fill="#1c5c34"/>
<rect x="416" y="160" width="32" height="32" fill="#39ff6a"/>
<rect x="64" y="192" width="32" height="32" fill="#39ff6a"/>
<rect x="128" y="192" width="32" height="32" fill="#1c5c34"/>
<rect x="352" y="192" width="32" height="32" fill="#1c5c34"/>
<rect x="416" y="192" width="32" height="32" fill="#39ff6a"/>
<rect x="64" y="224" width="32" height="32" fill="#39ff6a"/>
<rect x="128" y="224" width="32" height="32" fill="#1c5c34"/>
<rect x="352" y="224" width="32" height="32" fill="#1c5c34"/>
<rect x="416" y="224" width="32" height="32" fill="#39ff6a"/>
<rect x="64" y="256" width="32" height="32" fill="#39ff6a"/>
<rect x="128" y="256" width="32" height="32" fill="#1c5c34"/>
<rect x="224" y="256" width="32" height="32" fill="#39ff6a"/>
<rect x="256" y="256" width="32" height="32" fill="#39ff6a"/>
<rect x="352" y="256" width="32" height="32" fill="#1c5c34"/>
<rect x="416" y="256" width="32" height="32" fill="#39ff6a"/>
<rect x="64" y="288" width="32" height="32" fill="#39ff6a"/>
<rect x="128" y="288" width="32" height="32" fill="#1c5c34"/>
<rect x="224" y="288" width="32" height="32" fill="#39ff6a"/>
<rect x="256" y="288" width="32" height="32" fill="#39ff6a"/>
<rect x="352" y="288" width="32" height="32" fill="#1c5c34"/>
<rect x="416" y="288" width="32" height="32" fill="#39ff6a"/>
<rect x="64" y="320" width="32" height="32" fill="#39ff6a"/>
<rect x="128" y="320" width="32" height="32" fill="#1c5c34"/>
<rect x="224" y="320" width="32" height="32" fill="#39ff6a"/>
<rect x="256" y="320" width="32" height="32" fill="#39ff6a"/>
<rect x="352" y="320" width="32" height="32" fill="#1c5c34"/>
<rect x="416" y="320" width="32" height="32" fill="#39ff6a"/>
<rect x="64" y="352" width="32" height="32" fill="#39ff6a"/>
<rect x="416" y="352" width="32" height="32" fill="#39ff6a"/>
<rect x="64" y="384" width="32" height="32" fill="#39ff6a"/>
<rect x="416" y="384" width="32" height="32" fill="#39ff6a"/>
<rect x="416" y="416" width="32" height="32" fill="#39ff6a"/>
<rect x="448" y="416" width="32" height="32" fill="#39ff6a"/>
</svg>