<svg xmlns="http://www.w3.org/2000/svg" viewBox="0 0 1200 630">
<rect width="1200" height="630" fill="#010805"/>
<rect x="0" y="0" width="1200" height="1" fill="#39ff6a" opacity="0.03"/>
<rect x="0" y="4" width="1200" height="1" fill="#39ff6a" opacity="0.03"/>
<rect x="0" y="8" width="1200" height="1" fill="#39ff6a" opacity="0.03"/>
<rect x="0" y="12" width="1200" height="1" fill="#39ff6a" opacity="0.03"/>
<rect x="0" y="16" width="1200" height="1" fill="#39ff6a" opacity="0.03"/>
<rect x="0" y="20" width="1200" height="1" fill="#39ff6a" opacity="0.03"/>
<rect x="0" y="24" width="1200" height="1" fill="#39ff6a" opacity="0.03"/>
<rect x="0" y="28" width="1200" height="1" fill="#39ff6a" opacity="0.03"/>
<rect x="0" y="32" width="1200" height="1" fill="#39ff6a" opacity="0.03"/>
<rect x="0" y="36" width="1200" height="1" fill="#39ff6a" opacity="0.03"/>
<rect x="0" y="40" width="1200" height="1" fill="#39ff6a" opacity="0.03"/>
<rect x="0" y="44" width="1200" height="1" fill="#39ff6a" opacity="0.03"/>
<rect x="0" y="48" width="1200" height="1" fill="#39ff6a" opacity="0.03"/>
<rect x="0" y="52" width="1200" height="1" fill="#39ff6a" opacity="0.03"/>
<rect x="0" y="56" width="1200" height="1" fill="#39ff6a" opacity="0.03"/>
<rect x="0" y="60" width="1200" height="1" fill="#39ff6a" opacity="0.03"/>
<rect x="0" y="64" width="1200" height="1" fill="#39ff6a" opacity="0.03"/>
<rect x="0" y="68" width="1200" height="1" fill="#39ff6a" opacity="0.03"/>
<rect x="0" y="72" width="1200" height="1" fill="#39ff6a" opacity="0.03"/>
<rect x="0" y="76" width="1200" height="1" fill="#39ff6a" opacity="0.03"/>
<rect x="0" y="80" width="1200" height="1" fill="#39ff6a" opacity="0.03"/>
<rect x="0" y="84" width="1200" height="1" fill="#39ff6a" opacity="0.03"/>
<rect x="0" y="88" width="1200" height="1" fill="#39ff6a" opacity="0.03"/>
<rect x="0" y="92" width="1200" height="1" fill="#39ff6a" opacity="0.03"/>
<rect x="0" y="96" width="1200" height="1" fill="#39ff6a" opacity="0.03"/>
<rect x="0" y="100" width="1200" height="1" fill="#39ff6a" opacity="0.03"/>
<rect x="0" y="104" width="1200" height="1" fill="#39ff6a" opacity="0.03"/>
<rect x="0" y="108" width="1200" height="1" fill="#39ff6a" opacity="0.03"/>
<rect x="0" y="112" width="1200" height="1" fill="#39ff6a" opacity="0.03"/>
<rect x="0" y="116" width="1200" height="1" fill="#39ff6a" opacity="0.03"/>
<rect x="0" y="120" width="1200" height="1" fill="#39ff6a" opacity="0.03"/>
<rect x="0" y="124" width="1200" height="1" fill="#39ff6a" opacity="0.03"/>
<rect x="0" y="128" width="1200" height="1" fill="#39ff6a" opacity="0.03"/>
<rect x="0" y="132" width="1200" height="1" fill="#39ff6a" opacity="0.03"/>
<rect x="0" y="136" width="1200" height="1" fill="#39ff6a" opacity="0.03"/>
<rect x="0" y="140" width="1200" height="1" fill="#39ff6a" opacity="0.03"/>
<rect x="0" y="144" width="1200" height="1" fill="#39ff6a" opacity="0.03"/>
<rect x="0" y="148" width="1200" height="1" fill="#39ff6a" opacity="0.03"/>
<rect x="0" y="152" width="1200" height="1" fill="#39ff6a" opacity="0.03"/>
<rect x="0" y="156" width="1200" height="1" fill="#39ff6a" opacity="0.03"/>
<rect x="0" y="160" width="1200" height="1" fill="#39ff6a" opacity="0.03"/>
<rect x="0" y="164" width="1200" height="1" fill="#39ff6a" opacity="0.03"/>
<rect x="0" y="168" width="1200" height="1" fill="#39ff6a" opacity="0.03"/>
<rect x="0" y="172" width="1200" height="1" fill="#39ff6a" opacity="0.03"/>
<rect x="0" y="176" width="1200" height="1" fill="#39ff6a" opacity="0.03"/>
<rect x="0" y="180" width="1200" height="1" fill="#39ff6a" opacity="0.03"/>
<rect x="0" y="184" width="1200" height="1" fill="#39ff6a" opacity="0.03"/>
<rect x="0" y="188" width="1200" height="1" fill="#39ff6a" opacity="0.03"/>
<rect x="0" y="192" width="1200" height="1" fill="#39ff6a" opacity="0.03"/>
<rect x="0" y="196" width="1200" height="1" fill="#39ff6a" opacity="0.03"/>
<rect x="0" y="200" width="1200" height="1" fill="#39ff6a" opacity="0.03"/>
<rect x="0" y="204" width="1200" height="1" fill="#39ff6a" opacity="0.03"/>
<rect x="0" y="208" width="1200" height="1" fill="#39ff6a" opacity="0.03"/>
<rect x="0" y="212" width="1200" height="1" fill="#39ff6a" opacity="0.03"/>
<rect x="0" y="216" width="1200" height="1" fill="#39ff6a" opacity="0.03"/>
<rect x="0" y="220" width="1200" height="1" fill="#39ff6a" opacity="0.03"/>
<rect x="0" y="224" width="1200" height="1" fill="#39ff6a" opacity="0.03"/>
<rect x="0" y="228" width="1200" height="1" fill="#39ff6a" opacity="0.03"/>
<rect x="0" y="232" width="1200" height="1" fill="#39ff6a" opacity="0.03"/>
<rect x="0" y="236" width="1200" height="1" fill="#39ff6a" opacity="0.03"/>
<rect x="0" y="240" width="1200" height="1" fill="#39ff6a" opacity="0.03"/>
<rect x="0" y="244" width="1200" height="1" fill="#39ff6a" opacity="0.03"/>
<rect x="0" y="248" width="1200" height="1" fill="#39ff6a" opacity="0.03"/>
<rect x="0" y="252" width="1200" height="1" fill="#39ff6a" opacity="0.03"/>
<rect x="0" y="256" width="1200" height="1" fill="#39ff6a" opacity="0.03"/>
<rect x="0" y="260" width="1200" height="1" fill="#39ff6a" opacity="0.03"/>
<rect x="0" y="264" width="1200" height="1" fill="#39ff6a" opacity="0.03"/>
<rect x="0" y="268" width="1200" height="1" fill="#39ff6a" opacity="0.03"/>
<rect x="0" y="272" width="1200" height="1" fill="#39ff6a" opacity="0.03"/>
<rect x="0" y="276" width="1200" height="1" fill="#39ff6a" opacity="0.03"/>
<rect x="0" y="280" width="1200" height="1" fill="#39ff6a" opacity="0.03"/>
<rect x="0" y="284" width="1200" height="1" fill="#39ff6a" opacity="0.03"/>
<rect x="0" y="288" width="1200" height="1" fill="#39ff6a" opacity="0.03"/>
<rect x="0" y="292" width="1200" height="1" fill="#39ff6a" opacity="0.03"/>
<rect x="0" y="296" width="1200" height="1" fill="#39ff6a" opacity="0.03"/>
<rect x="0" y="300" width="1200" height="1" fill="#39ff6a" opacity="0.03"/>
<rect x="0" y="304" width="1200" height="1" fill="#39ff6a" opacity="0.03"/>
<rect x="0" y="308" width="1200" height="1" fill="#39ff6a" opacity="0.03"/>
<rect x="0" y="312" width="1200" height="1" fill="#39ff6a" opacity="0.03"/>
<rect x="0" y="316" width="1200" height="1" fill="#39ff6a" opacity="0.03"/>
<rect x="0" y="320" width="1200" height="1" fill="#39ff6a" opacity="0.03"/>
<rect x="0" y="324" width="1200" height="1" fill="#39ff6a" opacity="0.03"/>
<rect x="0" y="328" width="1200" height="1" fill="#39ff6a" opacity="0.03"/>
<rect x="0" y="332" width="1200" height="1" fill="#39ff6a" opacity="0.03"/>
<rect x="0" y="336" width="1200" height="1" fill="#39ff6a" opacity="0.03"/>
<rect x="0" y="340" width="1200" height="1" fill="#39ff6a" opacity="0.03"/>
<rect x="0" y="344" width="1200" height="1" fill="#39ff6a" opacity="0.03"/>
<rect x="0" y="348" width="1200" height="1" fill="#39ff6a" opacity="0.03"/>
<rect x="0" y="352" width="1200" height="1" fill="#39ff6a" opacity="0.03"/>
<rect x="0" y="356" width="1200" height="1" fill="#39ff6a" opacity="0.03"/>
<rect x="0" y="360" width="1200" height="1" fill="#39ff6a" opacity="0.03"/>
<rect x="0" y="364" width="1200" height="1" fill="#39ff6a" opacity="0.03"/>
<rect x="0" y="368" width="1200" height="1" fill="#39ff6a" opacity="0.03"/>
<rect x="0" y="372" width="1200" height="1" fill="#39ff6a" opacity="0.03"/>
<rect x="0" y="376" width="1200" height="1" fill="#39ff6a" opacity="0.03"/>
<rect x="0" y="380" width="1200" height="1" fill="#39ff6a" opacity="0.03"/>
<rect x="0" y="384" width="1200" height="1" fill="#39ff6a" opacity="0.03"/>
<rect x="0" y="388" width="1200" height="1" fill="#39ff6a" opacity="0.03"/>
<rect x="0" y="392" width="1200" height="1" fill="#39ff6a" opacity="0.03"/>
<rect x="0" y="396" width="1200" height="1" fill="#39ff6a" opacity="0.03"/>
<rect x="0" y="400" width="1200" height="1" fill="#39ff6a" opacity="0.03"/>
<rect x="0" y="404" width="1200" height="1" fill="#39ff6a" opacity="0.03"/>
<rect x="0" y="408" width="1200" height="1" fill="#39ff6a" opacity="0.03"/>
<rect x="0" y="412" width="1200" height="1" fill="#39ff6a" opacity="0.03"/>
<rect x="0" y="416" width="1200" height="1" fill="#39ff6a" opacity="0.03"/>
<rect x="0" y="420" width="1200" height="1" fill="#39ff6a" opacity="0.03"/>
<rect x="0" y="424" width="1200" height="1" fill="#39ff6a" opacity="0.03"/>
<rect x="0" y="428" width="1200" height="1" fill="#39ff6a" opacity="0.03"/>
<rect x="0" y="432" width="1200" height="1" fill="#39ff6a" opacity="0.03"/>
<rect x="0" y="436" width="1200" height="1" fill="#39ff6a" opacity="0.03"/>
<rect x="0" y="440" width="1200" height="1" fill="#39ff6a" opacity="0.03"/>
<rect x="0" y="444" width="1200" height="1" fill="#39ff6a" opacity="0.03"/>
<rect x="0" y="448" width="1200" height="1" fill="#39ff6a" opacity="0.03"/>
<rect x="0" y="452" width="1200" height="1" fill="#39ff6a" opacity="0.03"/>
<rect x="0" y="456" width="1200" height="1" fill="#39ff6a" opacity="0.03"/>
<rect x="0" y="460" width="1200" height="1" fill="#39ff6a" opacity="0.03"/>
<rect x="0" y="464" width="1200" height="1" fill="#39ff6a" opacity="0.03"/>
<rect x="0" y="468" width="1200" height="1" fill="#39ff6a" opacity="0.03"/>
<rect x="0" y="472" width="1200" height="1" fill="#39ff6a" opacity="0.03"/>
<rect x="0" y="476" width="1200" height="1" fill="#39ff6a" opacity="0.03"/>
<rect x="0" y="480" width="1200" height="1" fill="#39ff6a" opacity="0.03"/>
<rect x="0" y="484" width="1200" height="1" fill="#39ff6a" opacity="0.03"/>
<rect x="0" y="488" width="1200" height="1" fill="#39ff6a" opacity="0.03"/>
<rect x="0" y="492" width="1200" height="1" fill="#39ff6a" opacity="0.03"/>
<rect x="0" y="496" width="1200" height="1" fill="#39ff6a" opacity="0.03"/>
<rect x="0" y="500" width="1200" height="1" fill="#39ff6a" opacity="0.03"/>
<rect x="0" y="504" width="1200" height="1" fill="#39ff6a" opacity="0.03"/>
<rect x="0" y="508" width="1200" height="1" fill="#39ff6a" opacity="0.03"/>
<rect x="0" y="512" width="1200" height="1" fill="#39ff6a" opacity="0.03"/>
<rect x="0" y="516" width="1200" height="1" fill="#39ff6a" opacity="0.03"/>
<rect x="0" y="520" width="1200" height="1" fill="#39ff6a" opacity="0.03"/>
<rect x="0" y="524" width="1200" height="1" fill="#39ff6a" opacity="0.03"/>
<rect x="0" y="528" width="1200" height="1" fill="#39ff6a" opacity="0.03"/>
<rect x="0" y="532" width="1200" height="1" fill="#39ff6a" opacity="0.03"/>
<rect x="0" y="536" width="1200" height="1" fill="#39ff6a" opacity="0.03"/>
<rect x="0" y="540" width="1200" height="1" fill="#39ff6a" opacity="0.03"/>
<rect x="0" y="544" width="1200" height="1" fill="#39ff6a" opacity="0.03"/>
<rect x="0" y="548" width="1200" height="1" fill="#39ff6a" opacity="0.03"/>
<rect x="0" y="552" width="1200" height="1" fill="#39ff6a" opacity="0.03"/>
<rect x="0" y="556" width="1200" height="1" fill="#39ff6a" opacity="0.03"/>
<rect x="0" y="560" width="1200" height="1" fill="#39ff6a" opacity="0.03"/>
<rect x="0" y="564" width="1200" height="1" fill="#39ff6a" opacity="0.03"/>
<rect x="0" y="568" width="1200" height="1" fill="#39ff6a" opacity="0.03"/>
<rect x="0" y="572" width="1200" height="1" fill="#39ff6a" opacity="0.03"/>
<rect x="0" y="576" width="1200" height="1" fill="#39ff6a" opacity="0.03"/>
<rect x="0" y="580" width="1200" height="1" fill="#39ff6a" opacity="0.03"/>
<rect x="0" y="584" width="1200" height="1" fill="#39ff6a" opacity="0.03"/>
<rect x="0" y="588" width="1200" height="1" fill="#39ff6a" opacity="0.03"/>
<rect x="0" y="592" width="1200" height="1" fill="#39ff6a" opacity="0.03"/>
<rect x="0" y="596" width="1200" height="1" fill="#39ff6a" opacity="0.03"/>
<rect x="0" y="600" width="1200" height="1" fill="#39ff6a" opacity="0.03"/>
<rect x="0" y="604" width="1200" height="1" fill="#39ff6a" opacity="0.03"/>
<rect x="0" y="608" width="1200" height="1" fill="#39ff6a" opacity="0.03"/>
<rect x="0" y="612" width="1200" height="1" fill="#39ff6a" opacity="0.03"/>
<rect x="0" y="616" width="1200" height="1" fill="#39ff6a" opacity="0.03"/>
<rect x="0" y="620" width="1200" height="1" fill="#39ff6a" opacity="0.03"/>
<rect x="0" y="624" width="1200" height="1" fill="#39ff6a" opacity="0.03"/>
<rect x="0" y="628" width="1200" height="1" fill="#39ff6a" opacity="0.03"/>
<rect x="126" y="219" width="18" height="18" fill="#39ff6a"/>
<rect x="144" y="219" width="18" height="18" fill="#39ff6a"/>
<rect x="162" y="219" width="18" height="18" fill="#39ff6a"/>
<rect x="180" y="219" width="18" height="18" fill="#39ff6a"/>
<rect x="198" y="219" width="18" height="18" fill="#39ff6a"/>
<rect x="216" y="219" width="18" height="18" fill="#39ff6a"/>
<rect x="234" y="219" width="18" height="18" fill="#39ff6a"/>
<rect x="252" y="219" width="18" height="18" fill="#39ff6a"/>
<rect x="270" y="219" width="18" height="18" fill="#39ff6a"/>
<rect x="288" y="219" width="18" height="18" fill="#39ff6a"/>
<rect x="306" y="219" width="18" height="18" fill="#39ff6a"/>
<rect x="324" y="219" width="18" height="18" fill="#39ff6a"/>
<rect x="126" y="237" width="18" height="18" fill="#39ff6a"/>
<rect x="324" y="237" width="18" height="18" fill="#39ff6a"/>
<rect x="126" y="255" width="18" height="18" fill="#39ff6a"/>
<rect x="162" y="255" width="18" height="18" fill="#3f8a5a"/>
<rect x="180" y="255" width="18" height="18" fill="#3f8a5a"/>
<rect x="198" y="255" width="18" height="18" fill="#3f8a5a"/>
<rect x="216" y="255" width="18" height="18" fill="#3f8a5a"/>
<rect x="234" y="255" width="18" height="18" fill="#3f8a5a"/>
<rect x="252" y="255" width="18" height="18" fill="#3f8a5a"/>
<rect x="270" y="255" width="18" height="18" fill="#3f8a5a"/>
<rect x="288" y="255" width="18" height="18" fill="#3f8a5a"/>
<rect x="324" y="255" width="18" height="18" fill="#39ff6a"/>
<rect x="126" y="273" width="18" height="18" fill="#39ff6a"/>
<rect x="162" y="273" width="18" height="18" fill="#3f8a5a"/>
<rect x="288" y="273" width="18" height="18" fill="#3f8a5a"/>
<rect x="324" y="273" width="18" height="18" fill="#39ff6a"/>
<rect x="126" y="291" width="18" height="18" fill="#39ff6a"/>
<rect x="162" y="291" width="18" height="18" fill="#3f8a5a"/>
<rect x="288" y="291" width="18" height="18" fill="#3f8a5a"/>
<rect x="324" y="291" width="18" height="18" fill="#39ff6a"/>
<rect x="126" y="309" width="18" height="18" fill="#39ff6a"/>
<rect x="162" y="309" width="18" height="18" fill="#3f8a5a"/>
<rect x="216" y="309" width="18" height="18" fill="#39ff6a"/>
<rect x="234" y="309" width="18" height="18" fill="#39ff6a"/>
<rect x="288" y="309" width="18" height="18" fill="#3f8a5a"/>
<rect x="324" y="309" width="18" height="18" fill="#39ff6a"/>
<rect x="126" y="327" width="18" height="18" fill="#39ff6a"/>
<rect x="162" y="327" width="18" height="18" fill="#3f8a5a"/>
<rect x="216" y="327" width="18" height="18" fill="#39ff6a"/>
<rect x="234" y="327" width="18" height="18" fill="#39ff6a"/>
<rect x="288" y="327" width="18" height="18" fill="#3f8a5a"/>
<rect x="324" y="327" width="18" height="18" fill="#39ff6a"/>
<rect x="126" y="345" width="18" height="18" fill="#39ff6a"/>
<rect x="162" y="345" width="18" height="18" fill="#3f8a5a"/>
<rect x="216" y="345" width="18" height="18" fill="#39ff6a"/>
<rect x="234" y="345" width="18" height="18" fill="#39ff6a"/>
<rect x="288" y="345" width="18" height="18" fill="#3f8a5a"/>
<rect x="324" y="345" width="18" height="18" fill="#39ff6a"/>
<rect x="126" y="363" width="18" height="18" fill="#39ff6a"/>
<rect x="324" y="363" width="18" height="18" fill="#39ff6a"/>
<rect x="126" y="381" width="18" height="18" fill="#39ff6a"/>
<rect x="324" y="381" width="18" height="18" fill="#39ff6a"/>
<rect x="324" y="399" width="18" height="18" fill="#39ff6a"/>
<rect x="342" y="399" width="18" height="18" fill="#39ff6a"/>
<text x="470" y="270" font-family="'VT323','Courier New',monospace" font-size="72" fill="#39ff6a" letter-spacing="2">CONSPACE ROOMS</text>
<text x="470" y="315" font-family="'VT323','Courier New',monospace" font-size="30" fill="#3f8a5a">an interactive web installation</text>
<text x="470" y="380" font-family="'VT323','Courier New',monospace" font-size="26" fill="#39ff6a">a collaboration between Sinaida and UVALISS</text>
<text x="470" y="415" font-family="'VT323','Courier New',monospace" font-size="22" fill="#3f8a5a">SOULS series &#183; Alisa Feer</text>
<text x="470" y="470" font-family="'VT323','Courier New',monospace" font-size="22" fill="#39ff6a">sinaida.eu</text>
<text x="650" y="470" font-family="'VT323','Courier New',monospace" font-size="22" fill="#39ff6a">uvaliss.ru</text>
</svg>